ffmpeg version 6.1.1-3ubuntu5 Copyright (c) 2000-2023 the FFmpeg developers
  built with gcc 13 (Ubuntu 13.2.0-23ubuntu3)
  configuration: --prefix=/usr --extra-version=3ubuntu5 --toolchain=hardened --libdir=/usr/lib/x86_64-linux-gnu --incdir=/usr/include/x86_64-linux-gnu --arch=amd64 --enable-gpl --disable-stripping --disable-omx --enable-gnutls --enable-libaom --enable-libass --enable-libbs2b --enable-libcaca --enable-libcdio --enable-libcodec2 --enable-libdav1d --enable-libflite --enable-libfontconfig --enable-libfreetype --enable-libfribidi --enable-libglslang --enable-libgme --enable-libgsm --enable-libharfbuzz --enable-libmp3lame --enable-libmysofa --enable-libopenjpeg --enable-libopenmpt --enable-libopus --enable-librubberband --enable-libshine --enable-libsnappy --enable-libsoxr --enable-libspeex --enable-libtheora --enable-libtwolame --enable-libvidstab --enable-libvorbis --enable-libvpx --enable-libwebp --enable-libx265 --enable-libxml2 --enable-libxvid --enable-libzimg --enable-openal --enable-opencl --enable-opengl --disable-sndio --enable-libvpl --disable-libmfx --enable-libdc1394 --enable-libdrm --enable-libiec61883 --enable-chromaprint --enable-frei0r --enable-ladspa --enable-libbluray --enable-libjack --enable-libpulse --enable-librabbitmq --enable-librist --enable-libsrt --enable-libssh --enable-libsvtav1 --enable-libx264 --enable-libzmq --enable-libzvbi --enable-lv2 --enable-sdl2 --enable-libplacebo --enable-librav1e --enable-pocketsphinx --enable-librsvg --enable-libjxl --enable-shared
  libavutil      58. 29.100 / 58. 29.100
  libavcodec     60. 31.102 / 60. 31.102
  libavformat    60. 16.100 / 60. 16.100
  libavdevice    60.  3.100 / 60.  3.100
  libavfilter     9. 12.100 /  9. 12.100
  libswscale      7.  5.100 /  7.  5.100
  libswresample   4. 12.100 /  4. 12.100
  libpostproc    57.  3.100 / 57.  3.100
Routing option strict to both codec and muxer layer
[Parsed_scale_0 @ 0x5b1bd9f9d200] w:1920 h:1080 flags:'' interl:0
[Parsed_scale_2 @ 0x5b1bd9faa8c0] w:1920 h:1080 flags:'' interl:0
-vsync is deprecated. Use -fps_mode
Passing a number to -vsync is deprecated, use a string argument as described in the manual.
[h264 @ 0x5b1bd9fb3980] Reinit context to 1920x1088, pix_fmt: yuv420p
Input #0, mov,mp4,m4a,3gp,3g2,mj2, from '/var/www/html/project/media/video/original/fuga_gas_comina.mov':
  Metadata:
    major_brand     : qt  
    minor_version   : 512
    compatible_brands: qt  
    creation_time   : 2026-02-26T11:51:21.000000Z
    encoder         : Blackmagic Design DaVinci Resolve
  Duration: 00:00:23.57, start: 0.000000, bitrate: 7905 kb/s
  Stream #0:0[0x1]: Video: h264 (High), 1 reference frame (avc1 / 0x31637661), yuv420p(tv, bt709, progressive, left), 1920x1080 (1920x1088), 7603 kb/s, SAR 1:1 DAR 16:9, 30 fps, 30 tbr, 15360 tbn (default)
    Metadata:
      creation_time   : 2026-02-26T11:51:21.000000Z
      handler_name    : VideoHandler
      vendor_id       :     
      encoder         : H.264
      timecode        : 01:00:00:00
  Stream #0:1[0x2]: Audio: aac (LC) (mp4a / 0x6134706D), 48000 Hz, stereo, fltp, 319 kb/s (default)
    Metadata:
      creation_time   : 2026-02-26T11:51:21.000000Z
      handler_name    : SoundHandler
      vendor_id       : [0][0][0][0]
  Stream #0:2[0x3](eng): Data: none (tmcd / 0x64636D74), 0 kb/s (default)
    Metadata:
      creation_time   : 2026-02-26T11:51:21.000000Z
      handler_name    : TimeCodeHandler
      timecode        : 01:00:00:00
Input #1, png_pipe, from '/var/www/html/project/static/images/templates/logo.png':
  Duration: N/A, bitrate: N/A
  Stream #1:0: Video: png, 1 reference frame, rgba(pc, gbr/unknown/unknown), 1920x1080 [SAR 2835:2835 DAR 16:9], 25 fps, 25 tbr, 25 tbn
[out#0/mp4 @ 0x5b1bdae52280] Creating output stream from unlabeled output of complex filtergraph 0. This overrides automatic video mapping.
[vost#0:0/libx264 @ 0x5b1bdae53000] Created video stream from complex filtergraph 0:[overlay:default]
[vost#0:0/libx264 @ 0x5b1bdae53000] 
[out#0/mp4 @ 0x5b1bdae52280] No explicit maps, mapping streams automatically...
[aost#0:1/aac @ 0x5b1bdae54a00] Created audio stream from input stream 0:1
Stream mapping:
  Stream #0:0 (h264) -> scale:default (graph 0)
  Stream #1:0 (png) -> scale:default (graph 0)
  overlay:default (graph 0) -> Stream #0:0 (libx264)
  Stream #0:1 -> #0:1 (aac (native) -> aac (native))
Press [q] to stop, [?] for help
[h264 @ 0x5b1bda147b80] Reinit context to 1920x1088, pix_fmt: yuv420p
[graph_1_in_0_1 @ 0x5b1bd9f9d200] tb:1/48000 samplefmt:fltp samplerate:48000 chlayout:stereo
[in#1/png_pipe @ 0x5b1bd9fcf1c0] EOF while reading input
[in#1/png_pipe @ 0x5b1bd9fcf1c0] Terminating demuxer thread
[vist#1:0/png @ 0x5b1bda071080] Decoder thread received EOF packet
[vist#1:0/png @ 0x5b1bda071080] Decoder returned EOF, finishing
[vist#1:0/png @ 0x5b1bda071080] Terminating decoder thread
[Parsed_scale_0 @ 0x5b1bda023700] w:1920 h:1080 flags:'' interl:0
[Parsed_scale_2 @ 0x5b1bda030ac0] w:1920 h:1080 flags:'' interl:0
[graph 0 input from stream 0:0 @ 0x5b1bdb058340] w:1920 h:1080 pixfmt:yuv420p tb:1/15360 fr:30/1 sar:1/1
[graph 0 input from stream 1:0 @ 0x5b1bda03f000] w:1920 h:1080 pixfmt:rgba tb:1/25 fr:25/1 sar:2835/2835
[Parsed_scale_0 @ 0x5b1bda023700] w:1920 h:1080 fmt:yuv420p sar:1/1 -> w:1920 h:1080 fmt:yuv420p sar:1/1 flags:(null)
[Parsed_setsar_1 @ 0x5b1bda030800] w:1920 h:1080 sar:1/1 dar:16/9 -> sar:1/1 dar:16/9
[Parsed_scale_2 @ 0x5b1bda030ac0] w:1920 h:1080 fmt:rgba sar:2835/2835 -> w:1920 h:1080 fmt:yuva420p sar:1/1 flags:0x00000004
[Parsed_setsar_3 @ 0x5b1bda03de00] w:1920 h:1080 sar:1/1 dar:16/9 -> sar:1/1 dar:16/9
[Parsed_overlay_4 @ 0x5b1bda03e0c0] main w:1920 h:1080 fmt:yuv420p overlay w:1920 h:1080 fmt:yuva420p
[Parsed_overlay_4 @ 0x5b1bda03e0c0] [framesync @ 0x5b1bd9fb87e8] Selected 1/76800 time base
[Parsed_overlay_4 @ 0x5b1bda03e0c0] [framesync @ 0x5b1bd9fb87e8] Sync level 2
[Parsed_scale_0 @ 0x5b1bda023700] w:1920 h:1080 fmt:yuv420p sar:1/1 -> w:1920 h:1080 fmt:yuv420p sar:1/1 flags:(null)
    Last message repeated 2 times
[Parsed_scale_2 @ 0x5b1bda030ac0] w:1920 h:1080 fmt:rgba sar:2835/2835 -> w:1920 h:1080 fmt:yuva420p sar:1/1 flags:0x00000004
    Last message repeated 2 times
[libx264 @ 0x5b1bdae533c0] using SAR=1/1
[libx264 @ 0x5b1bdae533c0] using cpu capabilities: MMX2 SSE2Fast SSSE3 SSE4.2 AVX FMA3 BMI2 AVX2
[libx264 @ 0x5b1bdae533c0] profile High, level 4.0, 4:2:0, 8-bit
[libx264 @ 0x5b1bdae533c0] 264 - core 164 r3108 31e19f9 - H.264/MPEG-4 AVC codec - Copyleft 2003-2023 - http://www.videolan.org/x264.html - options: cabac=1 ref=1 deblock=1:0:0 analyse=0x3:0x113 me=hex subme=2 psy=1 psy_rd=1.00:0.00 mixed_ref=0 me_range=16 chroma_me=1 trellis=0 8x8dct=1 cqm=0 deadzone=21,11 fast_pskip=1 chroma_qp_offset=0 threads=24 lookahead_threads=8 sliced_threads=0 nr=0 decimate=1 interlaced=0 bluray_compat=0 constrained_intra=0 bframes=3 b_pyramid=2 b_adapt=1 b_bias=0 direct=1 weightb=1 open_gop=0 weightp=1 keyint=250 keyint_min=25 scenecut=40 intra_refresh=0 rc_lookahead=10 rc=crf mbtree=1 crf=18.0 qcomp=0.60 qpmin=0 qpmax=69 qpstep=4 ip_ratio=1.40 aq=1:1.00
Output #0, mp4, to '/var/www/html/project/media/video/watermarks/fuga_gas_comina.mp4':
  Metadata:
    major_brand     : qt  
    minor_version   : 512
    compatible_brands: qt  
    encoder         : Lavf60.16.100
  Stream #0:0: Video: h264, 1 reference frame (avc1 / 0x31637661), yuv420p(tv, bt709, progressive, left), 1920x1080 (0x0) [SAR 1:1 DAR 16:9], q=2-31, 30 fps, 15360 tbn
    Metadata:
      encoder         : Lavc60.31.102 libx264
    Side data:
      cpb: bitrate max/min/avg: 0/0/0 buffer size: 0 vbv_delay: N/A
  Stream #0:1: Audio: aac (LC) (mp4a / 0x6134706D), 48000 Hz, stereo, fltp, delay 1024, 128 kb/s (default)
    Metadata:
      creation_time   : 2026-02-26T11:51:21.000000Z
      handler_name    : SoundHandler
      vendor_id       : [0][0][0][0]
      encoder         : Lavc60.31.102 aac
[in#0/mov,mp4,m4a,3gp,3g2,mj2 @ 0x5b1bd9fb2dc0] EOF while reading input
[in#0/mov,mp4,m4a,3gp,3g2,mj2 @ 0x5b1bd9fb2dc0] Terminating demuxer thread
[vist#0:0/h264 @ 0x5b1bd9fb5080] Decoder thread received EOF packet
[vist#0:0/h264 @ 0x5b1bd9fb5080] Decoder returned EOF, finishing
[vist#0:0/h264 @ 0x5b1bd9fb5080] Terminating decoder thread
[Parsed_overlay_4 @ 0x5b1bda03e0c0] [framesync @ 0x5b1bd9fb87e8] Sync level 0
[aist#0:1/aac @ 0x5b1bda00f980] Decoder thread received EOF packet
[aist#0:1/aac @ 0x5b1bda00f980] Decoder returned EOF, finishing
[aist#0:1/aac @ 0x5b1bda00f980] Terminating decoder thread
No more output streams to write to, finishing.
[out#0/mp4 @ 0x5b1bdae52280] All streams finished
[out#0/mp4 @ 0x5b1bdae52280] Terminating muxer thread
[AVIOContext @ 0x5b1bdafb8b00] Statistics: 53933135 bytes written, 2 seeks, 209 writeouts
[out#0/mp4 @ 0x5b1bdae52280] Output file #0 (/var/www/html/project/media/video/watermarks/fuga_gas_comina.mp4):
[out#0/mp4 @ 0x5b1bdae52280]   Output stream #0:0 (video): 705 frames encoded; 705 packets muxed (53533461 bytes); 
[out#0/mp4 @ 0x5b1bdae52280]   Output stream #0:1 (audio): 1103 frames encoded (1129408 samples); 1104 packets muxed (372630 bytes); 
[out#0/mp4 @ 0x5b1bdae52280]   Total: 1809 packets (53906091 bytes) muxed
[out#0/mp4 @ 0x5b1bdae52280] video:52279kB audio:364kB subtitle:0kB other streams:0kB global headers:0kB muxing overhead: 0.050161%
frame=  705 fps= 76 q=-1.0 Lsize=   52669kB time=00:00:23.50 bitrate=18352.9kbits/s speed=2.52x    
[AVIOContext @ 0x5b1bd9faa700] Statistics: 3844 bytes written, 0 seeks, 19 writeouts
[libx264 @ 0x5b1bdae533c0] frame I:6     Avg QP:17.34  size:258233
[libx264 @ 0x5b1bdae533c0] frame P:311   Avg QP:20.47  size:118840
[libx264 @ 0x5b1bdae533c0] frame B:388   Avg QP:23.71  size: 38722
[libx264 @ 0x5b1bdae533c0] consecutive B-frames:  7.2% 55.0%  9.4% 28.4%
[libx264 @ 0x5b1bdae533c0] mb I  I16..4: 10.8% 19.3% 69.8%
[libx264 @ 0x5b1bdae533c0] mb P  I16..4:  6.7% 11.8% 10.2%  P16..4: 30.7% 17.4% 15.5%  0.0%  0.0%    skip: 7.8%
[libx264 @ 0x5b1bdae533c0] mb B  I16..4:  1.9%  2.5%  1.0%  B16..8: 26.0% 12.3%  4.0%  direct:15.0%  skip:37.3%  L0:37.2% L1:39.2% BI:23.6%
[libx264 @ 0x5b1bdae533c0] 8x8 transform intra:40.8% inter:26.3%
[libx264 @ 0x5b1bdae533c0] coded y,uvDC,uvAC intra: 66.2% 40.1% 8.9% inter: 32.7% 9.7% 0.7%
[libx264 @ 0x5b1bdae533c0] i16 v,h,dc,p: 36% 25% 28% 11%
[libx264 @ 0x5b1bdae533c0] i8 v,h,dc,ddl,ddr,vr,hd,vl,hu: 24% 31% 19%  3%  4%  4%  5%  3%  5%
[libx264 @ 0x5b1bdae533c0] i4 v,h,dc,ddl,ddr,vr,hd,vl,hu: 22% 26% 15%  5%  7%  6%  8%  5%  7%
[libx264 @ 0x5b1bdae533c0] i8c dc,h,v,p: 52% 26% 17%  5%
[libx264 @ 0x5b1bdae533c0] Weighted P-Frames: Y:4.5% UV:0.6%
[libx264 @ 0x5b1bdae533c0] kb/s:18223.92
[aac @ 0x5b1bdae54dc0] Qavg: 2191.671
[in#0/mov,mp4,m4a,3gp,3g2,mj2 @ 0x5b1bd9fb2dc0] Input file #0 (/var/www/html/project/media/video/original/fuga_gas_comina.mov):
[in#0/mov,mp4,m4a,3gp,3g2,mj2 @ 0x5b1bd9fb2dc0]   Input stream #0:0 (video): 705 packets read (22336241 bytes); 705 frames decoded; 0 decode errors; 
[in#0/mov,mp4,m4a,3gp,3g2,mj2 @ 0x5b1bd9fb2dc0]   Input stream #0:1 (audio): 1105 packets read (942864 bytes); 1103 frames decoded; 0 decode errors (1129408 samples); 
[in#0/mov,mp4,m4a,3gp,3g2,mj2 @ 0x5b1bd9fb2dc0]   Total: 1810 packets (23279105 bytes) demuxed
[AVIOContext @ 0x5b1bd9fb3180] Statistics: 44652437 bytes read, 881 seeks
[in#1/png_pipe @ 0x5b1bd9fcf1c0] Input file #1 (/var/www/html/project/static/images/templates/logo.png):
[in#1/png_pipe @ 0x5b1bd9fcf1c0]   Input stream #1:0 (video): 1 packets read (111578 bytes); 1 frames decoded; 0 decode errors; 
[in#1/png_pipe @ 0x5b1bd9fcf1c0]   Total: 1 packets (111578 bytes) demuxed
[AVIOContext @ 0x5b1bd9fb6ac0] Statistics: 111578 bytes read, 0 seeks
